<svg width="172" height="46" viewBox="0 0 172 46" fill="none" xmlns="http://www.w3.org/2000/svg">
<path d="M13.6825 9.31988C10.1944 9.31988 7.02156 10.6456 4.61042 12.8076V11.6018C4.61042 10.3422 3.57762 9.31988 2.30521 9.31988C1.03154 9.31988 0 10.3422 0 11.6018V43.7181C0 44.9789 1.03154 46 2.30521 46C3.57762 46 4.61042 44.9789 4.61042 43.7181V33.1924C7.02156 35.3545 10.1944 36.6802 13.6825 36.6802C21.2122 36.6802 27.317 30.556 27.317 23C27.317 15.444 21.2122 9.31988 13.6825 9.31988ZM13.6825 31.999C8.72903 31.999 4.71257 27.9708 4.71257 23C4.71257 18.0305 8.72903 14.001 13.6825 14.001C18.6359 14.001 22.6523 18.0305 22.6523 23C22.6523 27.9708 18.6359 31.999 13.6825 31.999Z" fill="#00417D"/>
<path d="M130.384 4.95911e-05C129.111 4.95911e-05 128.079 1.02116 128.079 2.28194V34.3983C128.079 35.6591 129.111 36.6802 130.384 36.6802C131.658 36.6802 132.689 35.6591 132.689 34.3983V2.28194C132.689 1.02116 131.658 4.95911e-05 130.384 4.95911e-05Z" fill="#00417D"/>
<path d="M141.232 9.31988C139.958 9.31988 138.927 10.3422 138.927 11.6018V34.3983C138.927 35.6591 139.958 36.6802 141.232 36.6802C142.504 36.6802 143.537 35.6591 143.537 34.3983V11.6018C143.537 10.3422 142.504 9.31988 141.232 9.31988Z" fill="#00417D"/>
<path d="M80.3263 9.31988C76.8382 9.31988 73.6654 10.6456 71.2543 12.8076V11.6018C71.2543 10.3422 70.2215 9.31988 68.949 9.31988C67.6754 9.31988 66.6426 10.3422 66.6426 11.6018V43.7181C66.6426 44.9789 67.6754 46 68.949 46C70.2215 46 71.2543 44.9789 71.2543 43.7181V33.1924C73.6654 35.3545 76.8382 36.6802 80.3263 36.6802C87.8573 36.6802 93.9608 30.556 93.9608 23C93.9608 15.444 87.8573 9.31988 80.3263 9.31988ZM80.3263 31.999C75.3729 31.999 71.3564 27.9708 71.3564 23C71.3564 18.0305 75.3729 14.001 80.3263 14.001C85.2797 14.001 89.2962 18.0305 89.2962 23C89.2962 27.9708 85.2797 31.999 80.3263 31.999Z" fill="#00417D"/>
<path d="M119.981 9.31988C118.707 9.31988 117.675 10.3422 117.675 11.6018V22.4907V24.5379C117.675 28.6586 114.301 31.999 110.138 31.999C105.975 31.999 102.601 28.6586 102.601 24.5379V22.7266V22.4907V11.6018C102.601 10.3422 101.568 9.31988 100.295 9.31988C99.0218 9.31988 97.9902 10.3422 97.9902 11.6018V22.4907V22.7266V24.6553C97.9902 31.2962 103.428 36.6802 110.138 36.6802C112.988 36.6802 115.603 35.7015 117.675 34.075V34.3983C117.675 35.6591 118.707 36.6802 119.981 36.6802C121.253 36.6802 122.286 35.6591 122.286 34.3983V24.6578V24.6553V22.4907V11.6018C122.286 10.3422 121.253 9.31988 119.981 9.31988Z" fill="#00417D"/>
<path d="M141.232 7.62939e-06C139.519 7.62939e-06 138.131 1.37439 138.131 3.06958C138.131 4.76478 139.519 6.13916 141.232 6.13916C142.944 6.13916 144.333 4.76478 144.333 3.06958C144.333 1.37439 142.944 7.62939e-06 141.232 7.62939e-06Z" fill="#00417D"/>
<path d="M163.906 24.0244C163.548 23.6012 163.548 22.9845 163.906 22.5614L171.466 13.6098C172.281 12.6411 172.147 11.2031 171.17 10.3954H171.168C170.191 9.589 168.737 9.72132 167.923 10.69L161.167 18.6879C160.707 19.2334 159.859 19.2334 159.399 18.6879L152.644 10.69C151.829 9.72132 150.376 9.589 149.398 10.3954C148.419 11.2031 148.287 12.6411 149.101 13.6098L156.661 22.5614C157.018 22.9845 157.018 23.6012 156.661 24.0244L149.101 32.9747C148.287 33.9434 148.419 35.3827 149.398 36.1891C150.376 36.9955 151.829 36.8632 152.644 35.8945L159.399 27.8966C159.859 27.3511 160.707 27.3511 161.167 27.8966L167.923 35.8945C168.737 36.8632 170.191 36.9955 171.168 36.1891H171.17C172.147 35.3827 172.281 33.9434 171.466 32.9747L163.906 24.0244Z" fill="#00417D"/>
<path d="M45.5492 10.9314C43.8367 10.9314 42.4482 12.3058 42.4482 14.001C42.4482 15.6962 43.8367 17.0706 45.5492 17.0706C47.2617 17.0706 48.6501 15.6962 48.6501 14.001C48.6501 12.3058 47.2617 10.9314 45.5492 10.9314Z" fill="#00417D"/>
<path d="M35.9203 17.4341C34.2078 17.4341 32.8193 18.8085 32.8193 20.5037C32.8193 22.1989 34.2078 23.5732 35.9203 23.5732C37.6328 23.5732 39.0212 22.1989 39.0212 20.5037C39.0212 18.8085 37.6328 17.4341 35.9203 17.4341Z" fill="#00417D"/>
<path d="M55.1888 17.4341C53.4763 17.4341 52.0879 18.8085 52.0879 20.5037C52.0879 22.1989 53.4763 23.5732 55.1888 23.5732C56.9013 23.5732 58.2898 22.1989 58.2898 20.5037C58.2898 18.8085 56.9013 17.4341 55.1888 17.4341Z" fill="#00417D"/>
<path d="M35.9203 29.1961C34.2078 29.1961 32.8193 30.5704 32.8193 32.2656C32.8193 33.9608 34.2078 35.3352 35.9203 35.3352C37.6328 35.3352 39.0212 33.9608 39.0212 32.2656C39.0212 30.5704 37.6328 29.1961 35.9203 29.1961Z" fill="#00417D"/>
<path d="M55.1888 29.1961C53.4763 29.1961 52.0879 30.5704 52.0879 32.2656C52.0879 33.9608 53.4763 35.3352 55.1888 35.3352C56.9013 35.3352 58.2898 33.9608 58.2898 32.2656C58.2898 30.5704 56.9013 29.1961 55.1888 29.1961Z" fill="#00417D"/>
<path d="M45.5492 35.0935C43.8367 35.0935 42.4482 36.4679 42.4482 38.1631C42.4482 39.8583 43.8367 41.2327 45.5492 41.2327C47.2617 41.2327 48.6501 39.8583 48.6501 38.1631C48.6501 36.4679 47.2617 35.0935 45.5492 35.0935Z" fill="#00417D"/>
<path d="M45.5492 23.0125C43.8367 23.0125 42.4482 24.3868 42.4482 26.082C42.4482 27.7772 43.8367 29.1516 45.5492 29.1516C47.2617 29.1516 48.6501 27.7772 48.6501 26.082C48.6501 24.3868 47.2617 23.0125 45.5492 23.0125Z" fill="#FFB50A"/>
</svg>
