<svg width="271" height="51" viewBox="0 0 271 51" fill="none" xmlns="http://www.w3.org/2000/svg">
<g clip-path="url(#clip0_2025_215)">
<path d="M25.8203 23.3597L36.2503 12.9997C36.6448 12.6073 36.9562 12.1394 37.1658 11.6239C37.3755 11.1085 37.479 10.5561 37.4703 9.99973V1.59973C37.4594 1.17778 37.2918 0.774984 37.0003 0.469727L17.0003 20.4697C16.6133 20.8553 16.3062 21.3134 16.0967 21.818C15.8872 22.3225 15.7793 22.8634 15.7793 23.4097C15.7793 23.956 15.8872 24.4969 16.0967 25.0014C16.3062 25.506 16.6133 25.9641 17.0003 26.3497L31.1203 40.3697C31.5064 40.7558 31.9648 41.062 32.4692 41.271C32.9736 41.4799 33.5143 41.5875 34.0603 41.5875C34.6063 41.5875 35.147 41.4799 35.6514 41.271C36.1559 41.062 36.6142 40.7558 37.0003 40.3697C37.3864 39.9836 37.6927 39.5253 37.9016 39.0208C38.1106 38.5164 38.2181 37.9757 38.2181 37.4297C38.2181 36.8837 38.1106 36.343 37.9016 35.8386C37.6927 35.3341 37.3864 34.8758 37.0003 34.4897L25.8203 23.3597Z" fill="#0100BE"/>
<path d="M35.8503 -0.000161763H4.43028C3.83598 -0.0116655 3.24564 0.09875 2.69568 0.32427C2.14572 0.54979 1.64781 0.885628 1.23269 1.31106C0.817572 1.73649 0.494044 2.24248 0.282079 2.79781C0.0701129 3.35313 -0.0257927 3.94601 0.000281079 4.53984V37.3398C-0.00642665 37.8972 0.0984045 38.4502 0.308607 38.9665C0.518809 39.4827 0.830137 39.9517 1.22427 40.3458C1.6184 40.7399 2.08739 41.0513 2.60362 41.2615C3.11986 41.4717 3.67292 41.5765 4.23028 41.5698C4.788 41.5779 5.34168 41.474 5.85854 41.2643C6.3754 41.0546 6.84494 40.7433 7.23935 40.3489C7.63376 39.9545 7.94505 39.4849 8.15477 38.9681C8.36448 38.4512 8.46836 37.8975 8.46028 37.3398V8.08984H29.3703L37.0003 0.469838C36.6934 0.168424 36.2804 -0.000367045 35.8503 -0.000161763Z" fill="#2B6FF4"/>
<path d="M65.2205 25.9096V39.9096H58.7305V2.59961H75.6505C84.4905 2.59961 89.0005 6.78961 89.0005 13.2896C89.0005 18.6496 85.1205 22.5896 79.2905 23.6596C80.7315 23.8055 82.1236 24.2627 83.3705 24.9996C85.5205 26.3796 86.6405 28.8896 87.8705 33.1796L89.8105 39.8696H82.9105L81.1705 33.2796C79.5905 27.1996 78.1005 25.8696 71.6105 25.8696L65.2205 25.9096ZM65.2205 8.22961V21.2296H73.8105C79.4305 21.2296 82.5505 18.6696 82.5505 14.5296C82.5505 10.5296 80.0505 8.24961 74.0705 8.24961L65.2205 8.22961Z" fill="black"/>
<path d="M106.68 40.4298C96.81 40.4298 91.75 34.1398 91.75 25.7598C91.75 17.6298 97.32 10.7598 106.47 10.7598C115.82 10.7598 120.22 17.4598 120.22 25.1198V27.3698H98C98.51 32.2298 101.42 35.1398 106.58 35.1398C110.31 35.1398 112.46 33.6098 114.15 30.6398L119.51 33.5598C117.05 37.5598 113.06 40.4298 106.68 40.4298ZM98.09 23.3498H113.93C113.68 19.1098 111.43 15.9898 106.42 15.9898C101.67 15.9998 98.8 18.7498 98.09 23.3498Z" fill="black"/>
<path d="M136.881 10.9297C141.531 10.9297 144.651 12.9797 146.441 17.0697V11.2897H152.781V50.9997H146.341V33.9997C145.503 35.9336 144.099 37.5684 142.314 38.6894C140.529 39.8103 138.447 40.3647 136.341 40.2797C129.541 40.2797 124.021 35.4297 124.021 25.7697C124.051 15.8897 130.341 10.9297 136.881 10.9297ZM146.881 25.5497C146.881 20.0797 144.371 16.0997 138.701 16.0997C133.391 16.0997 130.571 19.9297 130.571 25.6497C130.571 31.3697 133.251 34.9997 138.721 34.9997C144.391 34.9997 146.901 30.9997 146.901 25.5497H146.881Z" fill="black"/>
<path d="M185.39 39.91H179V33.17C177.05 38.02 173.53 40.48 169.18 40.48C162.28 40.48 158.96 35.88 158.96 28.87V11.29H165.35V27.14C165.35 31.99 167.04 35.14 171.84 35.14C176.24 35.14 178.95 31.36 178.95 25.38V11.29H185.39V39.91Z" fill="black"/>
<path d="M205.321 40.4298C195.451 40.4298 190.391 34.1398 190.391 25.7598C190.391 17.6298 195.961 10.7598 205.111 10.7598C214.471 10.7598 218.861 17.4598 218.861 25.1198V27.3698H196.631C197.141 32.2298 200.051 35.1398 205.221 35.1398C208.951 35.1398 211.091 33.6098 212.781 30.6398L218.151 33.5598C215.691 37.5598 211.711 40.4298 205.321 40.4298ZM196.731 23.3498H212.581C212.321 19.1098 210.071 15.9898 205.061 15.9898C200.311 15.9998 197.451 18.7498 196.731 23.3498Z" fill="black"/>
<path d="M226.32 30.4599C227.371 31.9669 228.783 33.1865 230.427 34.0075C232.071 34.8285 233.894 35.2247 235.73 35.1599C239.66 35.1599 241.3 33.2699 241.3 31.2799C241.3 28.3599 236.8 28.1599 231.69 27.2799C226.58 26.3999 222.75 24.7799 222.75 19.6099C222.75 14.6099 226.94 10.6099 234.14 10.6099C239.97 10.6099 244.06 12.3499 247.53 16.4299L242.63 20.6299C241.691 19.1517 240.38 17.946 238.829 17.1334C237.277 16.3209 235.54 15.93 233.79 15.9999C229.85 15.9999 228.37 17.7899 228.37 19.6799C228.37 22.2399 231.74 22.6799 236.49 23.4199C241.91 24.2299 246.97 25.5099 246.97 31.2899C246.97 36.6499 242.68 40.5399 235.57 40.5399C229.08 40.5399 224.48 38.3899 221.67 34.8599L226.32 30.4599Z" fill="black"/>
<path d="M270.001 39.2497C268.356 40.0766 266.531 40.482 264.691 40.4297C258.451 40.4297 255.901 37.0997 255.901 30.7697V16.6097H249.351V11.2897H256.001V3.99969L262.001 0.429688V11.2897H270.001V16.6097H262.001V29.9997C262.001 33.5797 263.481 34.9097 266.291 34.9097C267.596 34.9174 268.887 34.6375 270.071 34.0897L270.001 39.2497Z" fill="black"/>
</g>
<defs>
<clipPath id="clip0_2025_215">
<rect width="271" height="51" fill="white"/>
</clipPath>
</defs>
</svg>
